# xmcd CD database file
#
# Track frame offsets:
#	150
#	25376
#	47275
#	68224
#	88695
#	108270
#	132699
#	152302
#	171034
#	189672
#	206703
#	232348
#	256787
#	278673
#	301578
#	328148
#
# Disc length: 4671 seconds
#
# Revision: 0
# Processed by: cddbd v1.5.1PL2 Copyright (c) Steve Scherf et al.
# Submitted via: CDex 1.51
#
DISCID=d9123d10
DTITLE=Grupo Niche - Nuevo Con Exitos
DYEAR=1900
DGENRE=Salsa
TTITLE0=Ganas
TTITLE1=Es Loca O Es Mala
TTITLE2=Amor Del Bueno
TTITLE3=Salao
TTITLE4=Te Prometo Y Te Propongo
TTITLE5=Sin Novia Y Sin Cargo
TTITLE6=Fotografía (Salsa)
TTITLE7=Enamorada
TTITLE8=Gavilán
TTITLE9=Fotografía (Latin)
TTITLE10=Una Aventura
TTITLE11=Se Pareció Tanto A Ti
TTITLE12=Sin Sentimiento
TTITLE13=Brilla El Sol
TTITLE14=Del Puente Pa' Allá
TTITLE15=Cali Pachanguero
EXTD=
EXTT0=
EXTT1=
EXTT2=
EXTT3=
EXTT4=
EXTT5=
EXTT6=
EXTT7=
EXTT8=
EXTT9=
EXTT10=
EXTT11=
EXTT12=
EXTT13=
EXTT14=
EXTT15=
PLAYORDER=
